<svg id="SvgjsSvg1006" width="587.046875" height="439.890625" xmlns="http://www.w3.org/2000/svg" version="1.1" xmlns:xlink="http://www.w3.org/1999/xlink" xmlns:svgjs="http://svgjs.com/svgjs"><defs id="SvgjsDefs1007"><marker id="SvgjsMarker1046" markerWidth="16" markerHeight="16" refX="3" refY="8" viewBox="0 0 16 16" orient="auto" markerUnits="userSpaceOnUse" stroke-dasharray="0,0"><circle id="SvgjsCircle1047" r="4" cx="8" cy="8" fill="#ffffff" stroke="#000000" stroke-width="2"></circle></marker><marker id="SvgjsMarker1048" markerWidth="16" markerHeight="16" refX="13" refY="8" viewBox="0 0 16 16" orient="auto" markerUnits="userSpaceOnUse" stroke-dasharray="0,0"><circle id="SvgjsCircle1049" r="4" cx="8" cy="8" fill="#ffffff" stroke="#000000" stroke-width="2"></circle></marker><marker id="SvgjsMarker1082" markerWidth="16" markerHeight="16" refX="3" refY="8" viewBox="0 0 16 16" orient="auto" markerUnits="userSpaceOnUse" stroke-dasharray="0,0"><circle id="SvgjsCircle1083" r="4" cx="8" cy="8" fill="#ffffff" stroke="#000000" stroke-width="2"></circle></marker><marker id="SvgjsMarker1084" markerWidth="16" markerHeight="16" refX="13" refY="8" viewBox="0 0 16 16" orient="auto" markerUnits="userSpaceOnUse" stroke-dasharray="0,0"><circle id="SvgjsCircle1085" r="4" cx="8" cy="8" fill="#ffffff" stroke="#000000" stroke-width="2"></circle></marker><marker id="SvgjsMarker1130" markerWidth="16" markerHeight="16" refX="3" refY="8" viewBox="0 0 16 16" orient="auto" markerUnits="userSpaceOnUse" stroke-dasharray="0,0"><circle id="SvgjsCircle1131" r="4" cx="8" cy="8" fill="#ffffff" stroke="#000000" stroke-width="2"></circle></marker><marker id="SvgjsMarker1132" markerWidth="16" markerHeight="16" refX="13" refY="8" viewBox="0 0 16 16" orient="auto" markerUnits="userSpaceOnUse" stroke-dasharray="0,0"><circle id="SvgjsCircle1133" r="4" cx="8" cy="8" fill="#ffffff" stroke="#000000" stroke-width="2"></circle></marker></defs><g id="SvgjsG1008" transform="translate(359.19524099277305,25.001420454545325)"><path id="SvgjsPath1009" d="M 0 0L 122 0L 122 32L 0 32Z" stroke="none" fill="none"></path><g id="SvgjsG1010"><text id="SvgjsText1011" font-family="&quot;Comic Sans MS&quot;" text-anchor="start" font-size="12px" width="122px" fill="#000000" font-weight="700" align="middle" anchor="start" family="&quot;Comic Sans MS&quot;" size="12px" weight="700" font-style="" opacity="1" y="6.7" transform="rotate(0)"><tspan id="SvgjsTspan1012" dy="15" x="0"><tspan id="SvgjsTspan1013" style="text-decoration:;">Behavioral Patterns</tspan></tspan></text></g></g><g id="SvgjsG1014" transform="translate(46.50242641057011,60.00142045454521)"><path id="SvgjsPath1015" d="M 0 4Q 0 0 4 0L 81 0Q 85 0 85 4L 85 28Q 85 32 81 32L 4 32Q 0 32 0 28Z" stroke="rgba(0,0,0,1)" stroke-width="2" fill-opacity="1" fill="#ffffcc"></path><g id="SvgjsG1016"><text id="SvgjsText1017" font-family="&quot;Comic Sans MS&quot;" text-anchor="start" font-size="12px" width="65px" fill="#000000" font-weight="700" align="middle" anchor="start" family="&quot;Comic Sans MS&quot;" size="12px" weight="700" font-style="" opacity="1" y="6.7" transform="rotate(0)"><tspan id="SvgjsTspan1018" dy="15" x="10"><tspan id="SvgjsTspan1019" style="text-decoration:;">Singleton</tspan></tspan></text></g></g><g id="SvgjsG1020" transform="translate(46.50242641057011,99.62642045454498)"><path id="SvgjsPath1021" d="M 0 4Q 0 0 4 0L 121 0Q 125 0 125 4L 125 28Q 125 32 121 32L 4 32Q 0 32 0 28Z" stroke="rgba(0,0,0,1)" stroke-width="2" fill-opacity="1" fill="#ffffcc"></path><g id="SvgjsG1022"><text id="SvgjsText1023" font-family="&quot;Comic Sans MS&quot;" text-anchor="start" font-size="12px" width="105px" fill="#000000" font-weight="700" align="middle" anchor="start" family="&quot;Comic Sans MS&quot;" size="12px" weight="700" font-style="" opacity="1" y="6.7" transform="rotate(0)"><tspan id="SvgjsTspan1024" dy="15" x="10"><tspan id="SvgjsTspan1025" style="text-decoration:;">Factory Method	</tspan></tspan></text></g></g><g id="SvgjsG1026" transform="translate(46.50242641057011,142.62642045454498)"><path id="SvgjsPath1027" d="M 0 4Q 0 0 4 0L 131 0Q 135 0 135 4L 135 28Q 135 32 131 32L 4 32Q 0 32 0 28Z" stroke="rgba(0,0,0,1)" stroke-width="2" fill-opacity="1" fill="#ffffcc"></path><g id="SvgjsG1028"><text id="SvgjsText1029" font-family="&quot;Comic Sans MS&quot;" text-anchor="start" font-size="12px" width="115px" fill="#000000" font-weight="700" align="middle" anchor="start" family="&quot;Comic Sans MS&quot;" size="12px" weight="700" font-style="" opacity="1" y="6.7" transform="rotate(0)"><tspan id="SvgjsTspan1030" dy="15" x="10"><tspan id="SvgjsTspan1031" style="text-decoration:;">Abstract Factory	</tspan></tspan></text></g></g><g id="SvgjsG1032" transform="translate(47.50242641057034,227.0014204545452)"><path id="SvgjsPath1033" d="M 0 4Q 0 0 4 0L 81 0Q 85 0 85 4L 85 28Q 85 32 81 32L 4 32Q 0 32 0 28Z" stroke="rgba(0,0,0,1)" stroke-width="2" fill-opacity="1" fill="#ffffcc"></path><g id="SvgjsG1034"><text id="SvgjsText1035" font-family="&quot;Comic Sans MS&quot;" text-anchor="start" font-size="12px" width="65px" fill="#000000" font-weight="700" align="middle" anchor="start" family="&quot;Comic Sans MS&quot;" size="12px" weight="700" font-style="" opacity="1" y="6.7" transform="rotate(0)"><tspan id="SvgjsTspan1036" dy="15" x="10"><tspan id="SvgjsTspan1037" style="text-decoration:;">Prototype</tspan></tspan></text></g></g><g id="SvgjsG1038" transform="translate(46.50242641057011,186.0014204545452)"><path id="SvgjsPath1039" d="M 0 4Q 0 0 4 0L 81 0Q 85 0 85 4L 85 28Q 85 32 81 32L 4 32Q 0 32 0 28Z" stroke="rgba(0,0,0,1)" stroke-width="2" fill-opacity="1" fill="#ffffcc"></path><g id="SvgjsG1040"><text id="SvgjsText1041" font-family="&quot;Comic Sans MS&quot;" text-anchor="start" font-size="12px" width="65px" fill="#000000" font-weight="700" align="middle" anchor="start" family="&quot;Comic Sans MS&quot;" size="12px" weight="700" font-style="" opacity="1" y="6.7" transform="rotate(0)"><tspan id="SvgjsTspan1042" dy="15" x="10"><tspan id="SvgjsTspan1043" style="text-decoration:;">Builder	</tspan></tspan></text></g></g><g id="SvgjsG1044"><path id="SvgjsPath1045" d="M30.494161947760148 247.0014204545452C 30.494161947760148 176.3187892416841 30.494161947760148 140.9774736352536 30.494161947760148 70.29484242239249" stroke-dasharray="3,3" stroke="#000000" stroke-width="2" fill="none" marker-start="url(#SvgjsMarker1046)" marker-end="url(#SvgjsMarker1048)"></path></g><g id="SvgjsG1050" transform="translate(226.7246486327926,131.52982954545467)"><path id="SvgjsPath1051" d="M 0 4Q 0 0 4 0L 81 0Q 85 0 85 4L 85 28Q 85 32 81 32L 4 32Q 0 32 0 28Z" stroke="rgba(0,0,0,1)" stroke-width="2" fill-opacity="1" fill="#ffffcc"></path><g id="SvgjsG1052"><text id="SvgjsText1053" font-family="&quot;Comic Sans MS&quot;" text-anchor="start" font-size="12px" width="65px" fill="#000000" font-weight="700" align="middle" anchor="start" family="&quot;Comic Sans MS&quot;" size="12px" weight="700" font-style="" opacity="1" y="6.7" transform="rotate(0)"><tspan id="SvgjsTspan1054" dy="15" x="10"><tspan id="SvgjsTspan1055" style="text-decoration:;">Adapter</tspan></tspan></text></g></g><g id="SvgjsG1056" transform="translate(226.7246486327926,173.15482954545467)"><path id="SvgjsPath1057" d="M 0 4Q 0 0 4 0L 81 0Q 85 0 85 4L 85 28Q 85 32 81 32L 4 32Q 0 32 0 28Z" stroke="rgba(0,0,0,1)" stroke-width="2" fill-opacity="1" fill="#ffffcc"></path><g id="SvgjsG1058"><text id="SvgjsText1059" font-family="&quot;Comic Sans MS&quot;" text-anchor="start" font-size="12px" width="65px" fill="#000000" font-weight="700" align="middle" anchor="start" family="&quot;Comic Sans MS&quot;" size="12px" weight="700" font-style="" opacity="1" y="6.7" transform="rotate(0)"><tspan id="SvgjsTspan1060" dy="15" x="10"><tspan id="SvgjsTspan1061" style="text-decoration:;">Bridge</tspan></tspan></text></g></g><g id="SvgjsG1062" transform="translate(226.7246486327926,216.52982954545467)"><path id="SvgjsPath1063" d="M 0 4Q 0 0 4 0L 81 0Q 85 0 85 4L 85 28Q 85 32 81 32L 4 32Q 0 32 0 28Z" stroke="rgba(0,0,0,1)" stroke-width="2" fill-opacity="1" fill="#ffffcc"></path><g id="SvgjsG1064"><text id="SvgjsText1065" font-family="&quot;Comic Sans MS&quot;" text-anchor="start" font-size="12px" width="65px" fill="#000000" font-weight="700" align="middle" anchor="start" family="&quot;Comic Sans MS&quot;" size="12px" weight="700" font-style="" opacity="1" y="6.7" transform="rotate(0)"><tspan id="SvgjsTspan1066" dy="15" x="10"><tspan id="SvgjsTspan1067" style="text-decoration:;">Composite	</tspan></tspan></text></g></g><g id="SvgjsG1068" transform="translate(226.7246486327926,299.5298295454547)"><path id="SvgjsPath1069" d="M 0 4Q 0 0 4 0L 81 0Q 85 0 85 4L 85 28Q 85 32 81 32L 4 32Q 0 32 0 28Z" stroke="rgba(0,0,0,1)" stroke-width="2" fill-opacity="1" fill="#ffffcc"></path><g id="SvgjsG1070"><text id="SvgjsText1071" font-family="&quot;Comic Sans MS&quot;" text-anchor="start" font-size="12px" width="65px" fill="#000000" font-weight="700" align="middle" anchor="start" family="&quot;Comic Sans MS&quot;" size="12px" weight="700" font-style="" opacity="1" y="6.7" transform="rotate(0)"><tspan id="SvgjsTspan1072" dy="15" x="10"><tspan id="SvgjsTspan1073" style="text-decoration:;">Facade	</tspan></tspan></text></g></g><g id="SvgjsG1074" transform="translate(226.7246486327926,258.5298295454547)"><path id="SvgjsPath1075" d="M 0 4Q 0 0 4 0L 81 0Q 85 0 85 4L 85 28Q 85 32 81 32L 4 32Q 0 32 0 28Z" stroke="rgba(0,0,0,1)" stroke-width="2" fill-opacity="1" fill="#ffffcc"></path><g id="SvgjsG1076"><text id="SvgjsText1077" font-family="&quot;Comic Sans MS&quot;" text-anchor="start" font-size="12px" width="65px" fill="#000000" font-weight="700" align="middle" anchor="start" family="&quot;Comic Sans MS&quot;" size="12px" weight="700" font-style="" opacity="1" y="6.7" transform="rotate(0)"><tspan id="SvgjsTspan1078" dy="15" x="10"><tspan id="SvgjsTspan1079" style="text-decoration:;">Decorator</tspan></tspan></text></g></g><g id="SvgjsG1080"><path id="SvgjsPath1081" d="M209.71638416998218 400.1548295454547C 209.71638416998218 299.0721983325936 209.71638416998218 248.53088272616304 209.71638416998218 147.44825151330195" stroke-dasharray="3,3" stroke="#000000" stroke-width="2" fill="none" marker-start="url(#SvgjsMarker1082)" marker-end="url(#SvgjsMarker1084)"></path></g><g id="SvgjsG1086" transform="translate(226.7246486327926,341.5298295454547)"><path id="SvgjsPath1087" d="M 0 4Q 0 0 4 0L 81 0Q 85 0 85 4L 85 28Q 85 32 81 32L 4 32Q 0 32 0 28Z" stroke="rgba(0,0,0,1)" stroke-width="2" fill-opacity="1" fill="#ffffcc"></path><g id="SvgjsG1088"><text id="SvgjsText1089" font-family="&quot;Comic Sans MS&quot;" text-anchor="start" font-size="12px" width="65px" fill="#000000" font-weight="700" align="middle" anchor="start" family="&quot;Comic Sans MS&quot;" size="12px" weight="700" font-style="" opacity="1" y="6.7" transform="rotate(0)"><tspan id="SvgjsTspan1090" dy="15" x="10"><tspan id="SvgjsTspan1091" style="text-decoration:;">Flyweight</tspan></tspan></text></g></g><g id="SvgjsG1092" transform="translate(226.7246486327926,382.9048295454547)"><path id="SvgjsPath1093" d="M 0 4Q 0 0 4 0L 81 0Q 85 0 85 4L 85 28Q 85 32 81 32L 4 32Q 0 32 0 28Z" stroke="rgba(0,0,0,1)" stroke-width="2" fill-opacity="1" fill="#ffffcc"></path><g id="SvgjsG1094"><text id="SvgjsText1095" font-family="&quot;Comic Sans MS&quot;" text-anchor="start" font-size="12px" width="65px" fill="#000000" font-weight="700" align="middle" anchor="start" family="&quot;Comic Sans MS&quot;" size="12px" weight="700" font-style="" opacity="1" y="6.7" transform="rotate(0)"><tspan id="SvgjsTspan1096" dy="15" x="10"><tspan id="SvgjsTspan1097" style="text-decoration:;">Proxy</tspan></tspan></text></g></g><g id="SvgjsG1098" transform="translate(381.01069087338055,62.00142045454521)"><path id="SvgjsPath1099" d="M 0 4Q 0 0 4 0L 161 0Q 165 0 165 4L 165 28Q 165 32 161 32L 4 32Q 0 32 0 28Z" stroke="rgba(0,0,0,1)" stroke-width="2" fill-opacity="1" fill="#ffffcc"></path><g id="SvgjsG1100"><text id="SvgjsText1101" font-family="&quot;Comic Sans MS&quot;" text-anchor="start" font-size="12px" width="145px" fill="#000000" font-weight="700" align="middle" anchor="start" family="&quot;Comic Sans MS&quot;" size="12px" weight="700" font-style="" opacity="1" y="6.7" transform="rotate(0)"><tspan id="SvgjsTspan1102" dy="15" x="10"><tspan id="SvgjsTspan1103" style="text-decoration:;">Chain Of Responsibility	</tspan></tspan></text></g></g><g id="SvgjsG1104" transform="translate(382.0106908733808,101.62642045454498)"><path id="SvgjsPath1105" d="M 0 4Q 0 0 4 0L 81 0Q 85 0 85 4L 85 28Q 85 32 81 32L 4 32Q 0 32 0 28Z" stroke="rgba(0,0,0,1)" stroke-width="2" fill-opacity="1" fill="#ffffcc"></path><g id="SvgjsG1106"><text id="SvgjsText1107" font-family="&quot;Comic Sans MS&quot;" text-anchor="start" font-size="12px" width="65px" fill="#000000" font-weight="700" align="middle" anchor="start" family="&quot;Comic Sans MS&quot;" size="12px" weight="700" font-style="" opacity="1" y="6.7" transform="rotate(0)"><tspan id="SvgjsTspan1108" dy="15" x="10"><tspan id="SvgjsTspan1109" style="text-decoration:;">Command</tspan></tspan></text></g></g><g id="SvgjsG1110" transform="translate(382.0106908733808,144.62642045454498)"><path id="SvgjsPath1111" d="M 0 4Q 0 0 4 0L 91 0Q 95 0 95 4L 95 28Q 95 32 91 32L 4 32Q 0 32 0 28Z" stroke="rgba(0,0,0,1)" stroke-width="2" fill-opacity="1" fill="#ffffcc"></path><g id="SvgjsG1112"><text id="SvgjsText1113" font-family="&quot;Comic Sans MS&quot;" text-anchor="start" font-size="12px" width="75px" fill="#000000" font-weight="700" align="middle" anchor="start" family="&quot;Comic Sans MS&quot;" size="12px" weight="700" font-style="" opacity="1" y="6.7" transform="rotate(0)"><tspan id="SvgjsTspan1114" dy="15" x="10"><tspan id="SvgjsTspan1115" style="text-decoration:;">Interpreter	</tspan></tspan></text></g></g><g id="SvgjsG1116" transform="translate(381.01069087338055,229.0014204545452)"><path id="SvgjsPath1117" d="M 0 4Q 0 0 4 0L 81 0Q 85 0 85 4L 85 28Q 85 32 81 32L 4 32Q 0 32 0 28Z" stroke="rgba(0,0,0,1)" stroke-width="2" fill-opacity="1" fill="#ffffcc"></path><g id="SvgjsG1118"><text id="SvgjsText1119" font-family="&quot;Comic Sans MS&quot;" text-anchor="start" font-size="12px" width="65px" fill="#000000" font-weight="700" align="middle" anchor="start" family="&quot;Comic Sans MS&quot;" size="12px" weight="700" font-style="" opacity="1" y="6.7" transform="rotate(0)"><tspan id="SvgjsTspan1120" dy="15" x="10"><tspan id="SvgjsTspan1121" style="text-decoration:;">Mediator</tspan></tspan></text></g></g><g id="SvgjsG1122" transform="translate(381.01069087338055,188.0014204545452)"><path id="SvgjsPath1123" d="M 0 4Q 0 0 4 0L 81 0Q 85 0 85 4L 85 28Q 85 32 81 32L 4 32Q 0 32 0 28Z" stroke="rgba(0,0,0,1)" stroke-width="2" fill-opacity="1" fill="#ffffcc"></path><g id="SvgjsG1124"><text id="SvgjsText1125" font-family="&quot;Comic Sans MS&quot;" text-anchor="start" font-size="12px" width="65px" fill="#000000" font-weight="700" align="middle" anchor="start" family="&quot;Comic Sans MS&quot;" size="12px" weight="700" font-style="" opacity="1" y="6.7" transform="rotate(0)"><tspan id="SvgjsTspan1126" dy="15" x="10"><tspan id="SvgjsTspan1127" style="text-decoration:;">Iterator</tspan></tspan></text></g></g><g id="SvgjsG1128"><path id="SvgjsPath1129" d="M364.00242641057025 377.6226325757569C 364.00242641057025 255.34151651441113 364.00242641057025 194.20095848373825 364.00242641057025 71.91984242239249" stroke-dasharray="3,3" stroke="#000000" stroke-width="2" fill="none" marker-start="url(#SvgjsMarker1130)" marker-end="url(#SvgjsMarker1132)"></path></g><g id="SvgjsG1134" transform="translate(381.01069087338055,271.3764204545452)"><path id="SvgjsPath1135" d="M 0 4Q 0 0 4 0L 81 0Q 85 0 85 4L 85 28Q 85 32 81 32L 4 32Q 0 32 0 28Z" stroke="rgba(0,0,0,1)" stroke-width="2" fill-opacity="1" fill="#ffffcc"></path><g id="SvgjsG1136"><text id="SvgjsText1137" font-family="&quot;Comic Sans MS&quot;" text-anchor="start" font-size="12px" width="65px" fill="#000000" font-weight="700" align="middle" anchor="start" family="&quot;Comic Sans MS&quot;" size="12px" weight="700" font-style="" opacity="1" y="6.7" transform="rotate(0)"><tspan id="SvgjsTspan1138" dy="15" x="10"><tspan id="SvgjsTspan1139" style="text-decoration:;">Memento	</tspan></tspan></text></g></g><g id="SvgjsG1140" transform="translate(477.06007358942986,188.16696478675618)"><path id="SvgjsPath1141" d="M 0 4Q 0 0 4 0L 81 0Q 85 0 85 4L 85 28Q 85 32 81 32L 4 32Q 0 32 0 28Z" stroke="rgba(0,0,0,1)" stroke-width="2" fill-opacity="1" fill="#ffffcc"></path><g id="SvgjsG1142"><text id="SvgjsText1143" font-family="&quot;Comic Sans MS&quot;" text-anchor="start" font-size="12px" width="65px" fill="#000000" font-weight="700" align="middle" anchor="start" family="&quot;Comic Sans MS&quot;" size="12px" weight="700" font-style="" opacity="1" y="6.7" transform="rotate(0)"><tspan id="SvgjsTspan1144" dy="15" x="10"><tspan id="SvgjsTspan1145" style="text-decoration:;">Observer</tspan></tspan></text></g></g><g id="SvgjsG1146" transform="translate(477.06007358942986,228.71913775096624)"><path id="SvgjsPath1147" d="M 0 4Q 0 0 4 0L 81 0Q 85 0 85 4L 85 28Q 85 32 81 32L 4 32Q 0 32 0 28Z" stroke="rgba(0,0,0,1)" stroke-width="2" fill-opacity="1" fill="#ffffcc"></path><g id="SvgjsG1148"><text id="SvgjsText1149" font-family="&quot;Comic Sans MS&quot;" text-anchor="start" font-size="12px" width="65px" fill="#000000" font-weight="700" align="middle" anchor="start" family="&quot;Comic Sans MS&quot;" size="12px" weight="700" font-style="" opacity="1" y="6.7" transform="rotate(0)"><tspan id="SvgjsTspan1150" dy="15" x="10"><tspan id="SvgjsTspan1151" style="text-decoration:;">State	</tspan></tspan></text></g></g><g id="SvgjsG1152" transform="translate(477.06007358942986,271.13580441763287)"><path id="SvgjsPath1153" d="M 0 4Q 0 0 4 0L 81 0Q 85 0 85 4L 85 28Q 85 32 81 32L 4 32Q 0 32 0 28Z" stroke="rgba(0,0,0,1)" stroke-width="2" fill-opacity="1" fill="#ffffcc"></path><g id="SvgjsG1154"><text id="SvgjsText1155" font-family="&quot;Comic Sans MS&quot;" text-anchor="start" font-size="12px" width="65px" fill="#000000" font-weight="700" align="middle" anchor="start" family="&quot;Comic Sans MS&quot;" size="12px" weight="700" font-style="" opacity="1" y="6.7" transform="rotate(0)"><tspan id="SvgjsTspan1156" dy="15" x="10"><tspan id="SvgjsTspan1157" style="text-decoration:;">Strategy</tspan></tspan></text></g></g><g id="SvgjsG1158" transform="translate(381.01069087338055,314.26909722222223)"><path id="SvgjsPath1159" d="M 0 4Q 0 0 4 0L 126 0Q 130 0 130 4L 130 28Q 130 32 126 32L 4 32Q 0 32 0 28Z" stroke="rgba(0,0,0,1)" stroke-width="2" fill-opacity="1" fill="#ffffcc"></path><g id="SvgjsG1160"><text id="SvgjsText1161" font-family="&quot;Comic Sans MS&quot;" text-anchor="start" font-size="12px" width="110px" fill="#000000" font-weight="700" align="middle" anchor="start" family="&quot;Comic Sans MS&quot;" size="12px" weight="700" font-style="" opacity="1" y="6.7" transform="rotate(0)"><tspan id="SvgjsTspan1162" dy="15" x="10"><tspan id="SvgjsTspan1163" style="text-decoration:;">Template Method	</tspan></tspan></text></g></g><g id="SvgjsG1164" transform="translate(381.01069087338055,356.26909722222223)"><path id="SvgjsPath1165" d="M 0 4Q 0 0 4 0L 81 0Q 85 0 85 4L 85 28Q 85 32 81 32L 4 32Q 0 32 0 28Z" stroke="rgba(0,0,0,1)" stroke-width="2" fill-opacity="1" fill="#ffffcc"></path><g id="SvgjsG1166"><text id="SvgjsText1167" font-family="&quot;Comic Sans MS&quot;" text-anchor="start" font-size="12px" width="65px" fill="#000000" font-weight="700" align="middle" anchor="start" family="&quot;Comic Sans MS&quot;" size="12px" weight="700" font-style="" opacity="1" y="6.7" transform="rotate(0)"><tspan id="SvgjsTspan1168" dy="15" x="10"><tspan id="SvgjsTspan1169" style="text-decoration:;">Visitor	</tspan></tspan></text></g></g><g id="SvgjsG1170" transform="translate(208.22464863279237,93.37642045454521)"><path id="SvgjsPath1171" d="M 0 0L 122 0L 122 32L 0 32Z" stroke="none" fill="none"></path><g id="SvgjsG1172"><text id="SvgjsText1173" font-family="&quot;Comic Sans MS&quot;" text-anchor="start" font-size="12px" width="122px" fill="#000000" font-weight="700" align="middle" anchor="start" family="&quot;Comic Sans MS&quot;" size="12px" weight="700" font-style="" opacity="1" y="6.7" transform="rotate(0)"><tspan id="SvgjsTspan1174" dy="15" x="0"><tspan id="SvgjsTspan1175" style="text-decoration:;"> Structural Patterns</tspan></tspan></text></g></g><g id="SvgjsG1176" transform="translate(25.00242641057011,25.001420454545325)"><path id="SvgjsPath1177" d="M 0 0L 122 0L 122 32L 0 32Z" stroke="none" fill="none"></path><g id="SvgjsG1178"><text id="SvgjsText1179" font-family="&quot;Comic Sans MS&quot;" text-anchor="start" font-size="12px" width="122px" fill="#000000" font-weight="700" align="middle" anchor="start" family="&quot;Comic Sans MS&quot;" size="12px" weight="700" font-style="" opacity="1" y="6.7" transform="rotate(0)"><tspan id="SvgjsTspan1180" dy="15" x="0"><tspan id="SvgjsTspan1181" style="text-decoration:;">Creational Patterns</tspan></tspan></text></g></g><g id="SvgjsG1182" transform="translate(200.72464863279237,25.001420454545325)"><path id="SvgjsPath1183" d="M 0 0L 137 0L 137 32L 0 32Z" stroke="none" fill="none"></path><g id="SvgjsG1184"><text id="SvgjsText1185" font-family="&quot;Comic Sans MS&quot;" text-anchor="middle" font-size="16px" width="137px" fill="#000000" font-weight="700" align="middle" anchor="middle" family="&quot;Comic Sans MS&quot;" size="16px" weight="700" font-style="" opacity="1" y="3.6" transform="rotate(0)"><tspan id="SvgjsTspan1186" dy="20" x="68.5"><tspan id="SvgjsTspan1187" style="text-decoration:;">Design Patterns</tspan></tspan></text></g></g><g id="SvgjsG1188"><path id="SvgjsPath1189" d="M269.2246486327926 57.00142045454521L269.2246486327926 75.18892045454521L269.2246486327926 75.18892045454521L269.2246486327926 93.37642045454521" stroke-dasharray="3,3" stroke="#323232" stroke-width="2" fill="none"></path></g><g id="SvgjsG1190"><path id="SvgjsPath1191" d="M200.72464863279237 41.00142045454521L173.86353752168122 41.00142045454521L173.86353752168122 41.00142045454521L147.00242641057008 41.00142045454521" stroke-dasharray="3,3" stroke="#323232" stroke-width="2" fill="none"></path></g><g id="SvgjsG1192"><path id="SvgjsPath1193" d="M337.72464863279265 41.00142045454521L348.45994481278285 41.00142045454521L348.45994481278285 41.001420454545325L359.19524099277305 41.001420454545325" stroke-dasharray="3,3" stroke="#323232" stroke-width="2" fill="none"></path></g></svg>